# xmcd
#
# Track frame offsets: 
#        150
#        10183
#        17875
#        22694
#        36479
#        40321
#        42972
#        49853
#        57929
#        63935
#        68462
#        73380
#        99775
#        148234
#        184182
#        238938
#
# Disc length: 4558 seconds
#
# Revision: 0
# Processed by: cddbd v1.5.2PL0 Copyright (c) Steve Scherf et al.
# Submitted via: ExactAudioCopy v0.95b3
#
DISCID=de11cc10
DTITLE=Jimi Hendrix  - Kick Out The Jams - Disc 1 - 152  FLAC
DYEAR=1900
DGENRE=
TTITLE0=Jam I
TTITLE1=Jam II
TTITLE2=Jam III
TTITLE3=Jam IV
TTITLE4=Jam V
TTITLE5=Jam VI
TTITLE6=Jam VII
TTITLE7=Jam VIII
TTITLE8=Jam IX
TTITLE9=Jam X
TTITLE10=Jam XI
TTITLE11=Jam XII
TTITLE12=Red House
TTITLE13=I'm Gonna Leave This Town
TTITLE14=Bleeding Heart
TTITLE15=FHITA Jam
EXTD=
EXTT0=
EXTT1=
EXTT2=
EXTT3=
EXTT4=
EXTT5=
EXTT6=
EXTT7=
EXTT8=
EXTT9=
EXTT10=
EXTT11=
EXTT12=
EXTT13=
EXTT14=
EXTT15=
PLAYORDER=
